# xmcd
#
# Track frame offsets:
#	150
#	12409
#	24301
#	36670
#	48265
#	59990
#	73335
#	84570
#	97564
#	109591
#	122612
#	135822
#	147515
#	159346
#	172090
#	185444
#	198512
#	211337
#	223861
#	235599
#	248959
#	261107
#	273803
#	286397
#	298691
#	310778
#
# Disc length: 4319 seconds
#
# Revision: 1
# Processed by: cddbd v1.4PL0 Copyright (c) Steve Scherf et al.
# Submitted via: CDmax 1.8
#
DISCID=8310dd1a
DTITLE=Hank Penny - Hollywood Western Swing
DYEAR=1999
DGENRE=Western Swing
TTITLE0=Back Up A Little Bit
TTITLE1=Sweet Talkin' Mama
TTITLE2=When You Cry, You Cry Alone
TTITLE3=Texas in My Soul
TTITLE4=Hillbilly Jump
TTITLE5=Big Fat Papa
TTITLE6=I'm Gonna Change Things
TTITLE7=Time Will Tell
TTITLE8=Wildcat Mama
TTITLE9=Steel Guitar Stomp
TTITLE10=Hope You're Satisfied
TTITLE11=Talkin' Bout You
TTITLE12=Tearstains on Your Letter (alternate take)
TTITLE13=Last Night (remake)
TTITLE14=Low Down Woman Blues
TTITLE15=Why Didn't I Think of That
TTITLE16=My Inlaws Made an Outlaw Out of Me
TTITLE17=Red Hot Mama and Ice Cold Papa
TTITLE18=Boogie Woogie Now (alternate take)
TTITLE19=Penny Blows His Top
TTITLE20=Missouri
TTITLE21=Now Ain't You Glad Dear
TTITLE22=I'm Singing the Blues
TTITLE23=Get Yourself a Red Head
TTITLE24=I'm Counting the Days
TTITLE25=You Better Save It for a Rainy Day
EXTD=
EXTT0=
EXTT1=
EXTT2=
EXTT3=
EXTT4=
EXTT5=
EXTT6=
EXTT7=
EXTT8=
EXTT9=
EXTT10=
EXTT11=
EXTT12=
EXTT13=
EXTT14=
EXTT15=
EXTT16=
EXTT17=
EXTT18=
EXTT19=
EXTT20=
EXTT21=
EXTT22=
EXTT23=
EXTT24=
EXTT25=
PLAYORDER=
